<?xml version="1.0" encoding="UTF-8"?>
<svg xmlns="http://www.w3.org/2000/svg" xmlns:xlink="http://www.w3.org/1999/xlink" width="39pt" height="48pt" viewBox="0 0 39 48" version="1.1">
<g id="surface1">
<path style=" stroke:none;fill-rule:nonzero;fill:rgb(65.882353%,0%,18.823529%);fill-opacity:1;" d="M 23.304688 25.464844 C 22.5 25.476562 23.457031 25.875 24.507812 26.039062 C 24.796875 25.8125 25.0625 25.585938 25.296875 25.363281 C 24.640625 25.523438 23.976562 25.527344 23.304688 25.464844 "/>
<path style=" stroke:none;fill-rule:nonzero;fill:rgb(65.882353%,0%,18.823529%);fill-opacity:1;" d="M 27.628906 24.398438 C 28.105469 23.742188 28.457031 23.023438 28.582031 22.277344 C 28.472656 22.808594 28.183594 23.265625 27.910156 23.75 C 26.402344 24.6875 27.769531 23.191406 27.910156 22.621094 C 26.289062 24.640625 27.6875 23.832031 27.628906 24.398438 "/>
<path style=" stroke:none;fill-rule:nonzero;fill:rgb(65.882353%,0%,18.823529%);fill-opacity:1;" d="M 29.222656 20.28125 C 29.320312 18.839844 28.9375 19.296875 28.808594 19.84375 C 28.960938 19.921875 29.078125 20.859375 29.222656 20.28125 "/>
<path style=" stroke:none;fill-rule:nonzero;fill:rgb(65.882353%,0%,18.823529%);fill-opacity:1;" d="M 20.25 0.621094 C 20.679688 0.699219 21.179688 0.757812 21.109375 0.859375 C 21.578125 0.757812 21.683594 0.664062 20.25 0.621094 "/>
<path style=" stroke:none;fill-rule:nonzero;fill:rgb(65.882353%,0%,18.823529%);fill-opacity:1;" d="M 21.109375 0.859375 L 20.804688 0.921875 L 21.085938 0.894531 L 21.109375 0.859375 "/>
<path style=" stroke:none;fill-rule:nonzero;fill:rgb(65.882353%,0%,18.823529%);fill-opacity:1;" d="M 34.511719 20.824219 C 34.5625 22.117188 34.132812 22.742188 33.746094 23.851562 L 33.050781 24.199219 C 32.480469 25.292969 33.105469 24.894531 32.695312 25.765625 C 31.808594 26.550781 29.996094 28.21875 29.417969 28.371094 C 28.996094 28.363281 29.703125 27.878906 29.796875 27.6875 C 28.605469 28.496094 28.84375 28.902344 27.023438 29.394531 L 26.96875 29.277344 C 22.476562 31.375 16.238281 27.222656 16.320312 21.558594 C 16.273438 21.917969 16.183594 21.828125 16.085938 21.972656 C 15.855469 19.058594 17.441406 16.132812 20.125 14.9375 C 22.746094 13.652344 25.816406 14.179688 27.695312 15.914062 C 26.664062 14.574219 24.609375 13.152344 22.179688 13.289062 C 19.792969 13.324219 17.566406 14.828125 16.820312 16.457031 C 15.597656 17.21875 15.457031 19.394531 14.925781 19.792969 C 14.210938 25.007812 16.273438 27.261719 19.761719 29.914062 C 20.308594 30.28125 19.914062 30.335938 19.992188 30.617188 C 18.832031 30.078125 17.769531 29.265625 16.898438 28.269531 C 17.359375 28.941406 17.859375 29.597656 18.503906 30.109375 C 17.414062 29.742188 15.953125 27.484375 15.527344 27.390625 C 17.410156 30.738281 23.171875 33.257812 26.1875 32.007812 C 24.789062 32.058594 23.019531 32.035156 21.449219 31.460938 C 20.792969 31.125 19.894531 30.429688 20.054688 30.296875 C 24.171875 31.824219 28.421875 31.453125 31.984375 28.621094 C 32.890625 27.921875 33.882812 26.734375 34.167969 26.714844 C 33.738281 27.359375 34.242188 27.023438 33.910156 27.59375 C 34.8125 26.148438 33.519531 27.003906 34.84375 25.097656 L 35.332031 25.765625 C 35.152344 24.570312 36.832031 23.113281 36.664062 21.21875 C 37.046875 20.640625 37.09375 21.84375 36.683594 23.175781 C 37.253906 21.695312 36.832031 21.460938 36.980469 20.238281 C 37.136719 20.648438 37.34375 21.085938 37.449219 21.519531 C 37.082031 20.089844 37.832031 19.109375 38.015625 18.28125 C 37.832031 18.199219 37.445312 18.910156 37.355469 17.222656 C 37.371094 16.488281 37.5625 16.839844 37.636719 16.660156 C 37.492188 16.574219 37.109375 16.015625 36.878906 14.9375 C 37.046875 14.683594 37.328125 15.59375 37.554688 15.628906 C 37.410156 14.773438 37.15625 14.117188 37.144531 13.460938 C 36.476562 12.078125 36.910156 13.644531 36.367188 12.867188 C 35.65625 10.667969 36.957031 12.355469 37.046875 11.355469 C 38.121094 12.90625 38.738281 15.304688 39.019531 16.296875 C 38.804688 15.085938 38.457031 13.914062 38.03125 12.777344 C 38.359375 12.914062 37.503906 10.285156 38.457031 12.027344 C 37.441406 8.3125 34.101562 4.84375 31.03125 3.21875 C 31.40625 3.558594 31.882812 3.988281 31.710938 4.054688 C 30.183594 3.152344 30.453125 3.082031 30.234375 2.703125 C 28.992188 2.199219 28.910156 2.742188 28.085938 2.703125 C 25.742188 1.46875 25.289062 1.601562 23.132812 0.828125 L 23.230469 1.28125 C 21.675781 0.769531 21.417969 1.476562 19.742188 1.285156 C 19.636719 1.207031 20.277344 1 20.804688 0.921875 C 19.304688 1.117188 19.375 0.628906 17.90625 0.976562 C 18.265625 0.722656 18.648438 0.558594 19.035156 0.34375 C 17.8125 0.417969 16.113281 1.050781 16.636719 0.476562 C 14.640625 1.359375 11.089844 2.597656 9.101562 4.449219 L 9.039062 4.035156 C 8.125 5.121094 5.058594 7.277344 4.816406 8.683594 L 4.570312 8.738281 C 4.097656 9.535156 3.789062 10.441406 3.414062 11.261719 C 2.792969 12.308594 2.503906 11.664062 2.59375 11.828125 C 1.371094 14.28125 0.765625 16.34375 0.242188 18.035156 C 0.613281 18.589844 0.25 21.367188 0.390625 23.589844 C -0.222656 34.570312 8.164062 45.230469 17.328125 47.691406 C 18.671875 48.167969 20.671875 48.152344 22.371094 48.199219 C 20.363281 47.632812 20.105469 47.898438 18.152344 47.222656 C 16.742188 46.566406 16.433594 45.8125 15.4375 44.957031 L 15.832031 45.648438 C 13.875 44.960938 14.691406 44.796875 13.101562 44.296875 L 13.523438 43.75 C 12.886719 43.703125 11.84375 42.691406 11.554688 42.132812 L 10.863281 42.160156 C 10.027344 41.136719 9.585938 40.402344 9.617188 39.832031 L 9.394531 40.230469 C 9.136719 39.796875 6.324219 36.40625 7.785156 37.195312 C 7.511719 36.949219 7.152344 36.792969 6.761719 36.089844 L 7.058594 35.753906 C 6.355469 34.855469 5.765625 33.707031 5.8125 33.328125 C 6.1875 33.828125 6.445312 33.921875 6.703125 34.007812 C 4.929688 29.644531 4.832031 33.765625 3.488281 29.566406 L 3.769531 29.542969 C 3.554688 29.21875 3.421875 28.863281 3.246094 28.519531 L 3.371094 27.296875 C 2.09375 25.832031 3.011719 21.070312 3.195312 18.460938 C 3.324219 17.398438 4.261719 16.265625 4.976562 14.496094 L 4.542969 14.421875 C 5.371094 12.984375 9.285156 8.648438 11.097656 8.871094 C 11.976562 7.777344 10.925781 8.867188 10.753906 8.59375 C 12.683594 6.613281 13.289062 7.195312 14.589844 6.835938 C 15.996094 6.011719 13.386719 7.160156 14.050781 6.523438 C 16.476562 5.90625 15.769531 5.125 18.9375 4.8125 C 19.269531 5 18.164062 5.105469 17.882812 5.347656 C 19.90625 4.367188 24.28125 4.589844 27.125 5.894531 C 30.425781 7.421875 34.132812 11.941406 34.277344 16.191406 L 34.445312 16.234375 C 34.359375 17.925781 34.703125 19.878906 34.105469 21.675781 L 34.511719 20.824219 "/>
<path style=" stroke:none;fill-rule:nonzero;fill:rgb(65.882353%,0%,18.823529%);fill-opacity:1;" d="M 14.511719 26.5625 L 14.398438 27.121094 C 14.929688 27.835938 15.347656 28.605469 16.023438 29.164062 C 15.539062 28.222656 15.175781 27.835938 14.511719 26.5625 "/>
<path style=" stroke:none;fill-rule:nonzero;fill:rgb(65.882353%,0%,18.823529%);fill-opacity:1;" d="M 15.761719 26.511719 C 15.484375 26.207031 15.316406 25.835938 15.132812 25.46875 C 15.308594 26.113281 15.671875 26.671875 16.011719 27.238281 L 15.761719 26.511719 "/>
<path style=" stroke:none;fill-rule:nonzero;fill:rgb(65.882353%,0%,18.823529%);fill-opacity:1;" d="M 37.910156 21.742188 L 37.792969 22.035156 C 37.574219 23.5625 37.105469 25.074219 36.386719 26.476562 C 37.179688 24.996094 37.695312 23.378906 37.910156 21.742188 "/>
<path style=" stroke:none;fill-rule:nonzero;fill:rgb(65.882353%,0%,18.823529%);fill-opacity:1;" d="M 20.410156 0.238281 C 20.953125 0.0390625 21.746094 0.128906 22.324219 0 C 21.574219 0.0625 20.824219 0.101562 20.082031 0.195312 L 20.410156 0.238281 "/>
<path style=" stroke:none;fill-rule:nonzero;fill:rgb(65.882353%,0%,18.823529%);fill-opacity:1;" d="M 1.289062 10.320312 C 1.414062 11.472656 0.414062 11.917969 1.507812 11.160156 C 2.097656 9.847656 1.28125 10.796875 1.289062 10.320312 "/>
<path style=" stroke:none;fill-rule:nonzero;fill:rgb(65.882353%,0%,18.823529%);fill-opacity:1;" d="M 0 15.652344 C 0.253906 14.882812 0.296875 14.421875 0.394531 13.976562 C -0.304688 14.863281 0.0742188 15.050781 0 15.652344 "/>
</g>
</svg>
