<?xml version="1.0" encoding="UTF-8"?>
<svg xmlns="http://www.w3.org/2000/svg" xmlns:xlink="http://www.w3.org/1999/xlink" width="47pt" height="47pt" viewBox="0 0 47 47" version="1.1">
<g id="surface1">
<path style=" stroke:none;fill-rule:nonzero;fill:rgb(44.705882%,53.72549%,85.490196%);fill-opacity:1;" d="M 20.027344 20.347656 C 18.933594 20.347656 18.070312 21.328125 18.070312 22.519531 C 18.070312 23.714844 18.953125 24.695312 20.027344 24.695312 C 21.121094 24.695312 21.984375 23.714844 21.984375 22.519531 C 22.003906 21.328125 21.121094 20.347656 20.027344 20.347656 Z M 27.03125 20.347656 C 25.9375 20.347656 25.074219 21.328125 25.074219 22.519531 C 25.074219 23.714844 25.957031 24.695312 27.03125 24.695312 C 28.125 24.695312 28.988281 23.714844 28.988281 22.519531 C 28.988281 21.328125 28.125 20.347656 27.03125 20.347656 Z M 27.03125 20.347656 "/>
<path style=" stroke:none;fill-rule:nonzero;fill:rgb(44.705882%,53.72549%,85.490196%);fill-opacity:1;" d="M 36.351562 3.917969 L 10.648438 3.917969 C 8.480469 3.917969 6.714844 5.71875 6.714844 7.949219 L 6.714844 34.425781 C 6.714844 36.660156 8.480469 38.460938 10.648438 38.460938 L 32.402344 38.460938 L 31.382812 34.839844 L 33.839844 37.167969 L 36.160156 39.363281 L 40.285156 43.082031 L 40.285156 7.949219 C 40.285156 5.71875 38.519531 3.917969 36.351562 3.917969 Z M 28.949219 29.492188 C 28.949219 29.492188 28.257812 28.652344 27.683594 27.90625 C 30.195312 27.183594 31.152344 25.574219 31.152344 25.574219 C 30.367188 26.105469 29.621094 26.476562 28.949219 26.730469 C 27.988281 27.140625 27.066406 27.417969 26.167969 27.574219 C 24.324219 27.925781 22.636719 27.828125 21.199219 27.554688 C 20.105469 27.339844 19.164062 27.023438 18.378906 26.710938 C 17.9375 26.535156 17.457031 26.320312 16.976562 26.046875 C 16.921875 26.007812 16.863281 25.988281 16.804688 25.949219 C 16.765625 25.929688 16.746094 25.910156 16.726562 25.890625 C 16.382812 25.691406 16.191406 25.554688 16.191406 25.554688 C 16.191406 25.554688 17.113281 27.121094 19.546875 27.867188 C 18.972656 28.609375 18.261719 29.492188 18.261719 29.492188 C 14.023438 29.355469 12.410156 26.515625 12.410156 26.515625 C 12.410156 20.210938 15.175781 15.097656 15.175781 15.097656 C 17.9375 12.984375 20.566406 13.042969 20.566406 13.042969 L 20.757812 13.277344 C 17.304688 14.296875 15.710938 15.84375 15.710938 15.84375 C 15.710938 15.84375 16.132812 15.609375 16.84375 15.273438 C 18.894531 14.355469 20.527344 14.101562 21.199219 14.042969 C 21.3125 14.023438 21.410156 14.003906 21.523438 14.003906 C 22.695312 13.84375 24.019531 13.804688 25.398438 13.964844 C 27.222656 14.179688 29.179688 14.726562 31.171875 15.84375 C 31.171875 15.84375 29.65625 14.375 26.398438 13.355469 L 26.664062 13.042969 C 26.664062 13.042969 29.292969 12.984375 32.054688 15.097656 C 32.054688 15.097656 34.820312 20.210938 34.820312 26.515625 C 34.820312 26.515625 33.1875 29.355469 28.949219 29.492188 Z M 28.949219 29.492188 "/>
</g>
</svg>
