<?xml version="1.0" encoding="UTF-8"?>
<svg xmlns="http://www.w3.org/2000/svg" xmlns:xlink="http://www.w3.org/1999/xlink" width="48pt" height="48pt" viewBox="0 0 48 48" version="1.1">
<defs>
<linearGradient id="linear0" gradientUnits="userSpaceOnUse" x1="42.966156" y1="469.029648" x2="469.033748" y2="42.962056" gradientTransform="matrix(0.09375,0,0,0.09375,0,0)">
<stop offset="0" style="stop-color:rgb(100%,83.921569%,0%);stop-opacity:1;"/>
<stop offset="0.5" style="stop-color:rgb(100%,0.392157%,0%);stop-opacity:1;"/>
<stop offset="1" style="stop-color:rgb(84.705882%,0%,72.54902%);stop-opacity:1;"/>
</linearGradient>
<linearGradient id="linear1" gradientUnits="userSpaceOnUse" x1="163.042996" y1="348.953808" x2="348.953908" y2="163.042896" gradientTransform="matrix(0.09375,0,0,0.09375,0,0)">
<stop offset="0" style="stop-color:rgb(100%,39.215686%,0%);stop-opacity:1;"/>
<stop offset="0.5" style="stop-color:rgb(100%,0.392157%,0%);stop-opacity:1;"/>
<stop offset="1" style="stop-color:rgb(99.215686%,0%,33.72549%);stop-opacity:1;"/>
</linearGradient>
<linearGradient id="linear2" gradientUnits="userSpaceOnUse" x1="370.929133" y1="141.067671" x2="414.372785" y2="97.624019" gradientTransform="matrix(0.09375,0,0,0.09375,0,0)">
<stop offset="0" style="stop-color:rgb(95.294118%,0%,44.705882%);stop-opacity:1;"/>
<stop offset="1" style="stop-color:rgb(89.803922%,0%,59.215686%);stop-opacity:1;"/>
</linearGradient>
</defs>
<g id="surface1">
<path style=" stroke:none;fill-rule:nonzero;fill:url(#linear0);" d="M 47.855469 14.105469 C 47.738281 11.550781 47.332031 9.804688 46.738281 8.28125 C 46.136719 6.679688 45.191406 5.226562 43.972656 4.027344 C 42.773438 2.808594 41.320312 1.863281 39.71875 1.257812 C 38.195312 0.667969 36.449219 0.261719 33.894531 0.144531 C 31.335938 0.0273438 30.519531 0 24 0 C 17.480469 0 16.664062 0.0273438 14.105469 0.144531 C 11.550781 0.261719 9.804688 0.667969 8.277344 1.261719 C 6.679688 1.863281 5.226562 2.808594 4.027344 4.027344 C 2.808594 5.226562 1.863281 6.675781 1.257812 8.277344 C 0.667969 9.804688 0.261719 11.550781 0.144531 14.105469 C 0.0273438 16.664062 0 17.480469 0 24 C 0 30.519531 0.0273438 31.335938 0.144531 33.894531 C 0.261719 36.449219 0.667969 38.195312 1.261719 39.71875 C 1.863281 41.320312 2.808594 42.773438 4.027344 43.972656 C 5.226562 45.191406 6.679688 46.136719 8.28125 46.738281 C 9.804688 47.332031 11.550781 47.738281 14.105469 47.855469 C 16.664062 47.972656 17.484375 48 24 48 C 30.519531 48 31.335938 47.972656 33.894531 47.855469 C 36.449219 47.738281 38.195312 47.332031 39.722656 46.738281 C 42.945312 45.492188 45.492188 42.945312 46.738281 39.71875 C 47.332031 38.195312 47.738281 36.449219 47.855469 33.894531 C 47.972656 31.335938 48 30.519531 48 24 C 48 17.480469 47.972656 16.664062 47.855469 14.105469 Z M 43.535156 33.699219 C 43.429688 36.039062 43.039062 37.308594 42.710938 38.15625 C 41.902344 40.25 40.246094 41.902344 38.15625 42.710938 C 37.308594 43.039062 36.039062 43.429688 33.699219 43.535156 C 31.167969 43.652344 30.410156 43.675781 24 43.675781 C 17.589844 43.675781 16.832031 43.652344 14.300781 43.535156 C 11.960938 43.429688 10.691406 43.039062 9.84375 42.710938 C 8.804688 42.324219 7.859375 41.710938 7.085938 40.914062 C 6.289062 40.140625 5.675781 39.199219 5.289062 38.15625 C 4.960938 37.308594 4.570312 36.039062 4.464844 33.699219 C 4.347656 31.167969 4.324219 30.410156 4.324219 24 C 4.324219 17.589844 4.347656 16.832031 4.464844 14.300781 C 4.570312 11.960938 4.960938 10.691406 5.289062 9.84375 C 5.675781 8.804688 6.289062 7.859375 7.085938 7.085938 C 7.859375 6.289062 8.804688 5.675781 9.84375 5.289062 C 10.691406 4.960938 11.960938 4.570312 14.300781 4.464844 C 16.832031 4.347656 17.589844 4.324219 24 4.324219 C 30.40625 4.324219 31.167969 4.347656 33.699219 4.464844 C 36.039062 4.570312 37.308594 4.960938 38.15625 5.289062 C 39.195312 5.675781 40.140625 6.289062 40.914062 7.085938 C 41.710938 7.859375 42.324219 8.804688 42.707031 9.84375 C 43.039062 10.691406 43.429688 11.960938 43.535156 14.300781 C 43.652344 16.832031 43.675781 17.589844 43.675781 24 C 43.675781 30.410156 43.652344 31.167969 43.535156 33.699219 Z M 43.535156 33.699219 "/>
<path style=" stroke:none;fill-rule:nonzero;fill:url(#linear1);" d="M 24 11.675781 C 17.191406 11.675781 11.675781 17.195312 11.675781 24 C 11.675781 30.804688 17.191406 36.324219 24 36.324219 C 30.804688 36.324219 36.324219 30.804688 36.324219 24 C 36.324219 17.195312 30.804688 11.675781 24 11.675781 Z M 24 32 C 19.582031 32 16 28.417969 16 24 C 16 19.582031 19.582031 16 24 16 C 28.417969 16 32 19.582031 32 24 C 32 28.417969 28.417969 32 24 32 Z M 24 32 "/>
<path style=" stroke:none;fill-rule:nonzero;fill:url(#linear2);" d="M 39.691406 11.1875 C 39.691406 12.78125 38.402344 14.070312 36.8125 14.070312 C 35.21875 14.070312 33.929688 12.78125 33.929688 11.1875 C 33.929688 9.597656 35.21875 8.308594 36.8125 8.308594 C 38.402344 8.308594 39.691406 9.597656 39.691406 11.1875 Z M 39.691406 11.1875 "/>
</g>
</svg>
