<?xml version="1.0" encoding="UTF-8" standalone="no"?>
<svg 
    role="img" 
    xmlns="http://www.w3.org/2000/svg" 
    width="1000mm"
    height="1000mm"
    viewBox="0 0 1000 1000"
    style="max-width:1.6em; height: auto;">
    
    <path 
        id="path" 
        style="opacity:1;vector-effect:none;fill:#000000;fill-opacity:1;"
        d=" M 824 139C 824 139 824 539 824 539C 824 539 567 796 567 796C 567 796 453 796 453 796C 453 796 311 938 311 938C 311 938 311 796 311 796C 311 796 139 796 139 796C 139 796 139 282 139 282C 139 282 282 139 282 139C 282 139 824 139 824 139M 311 624C 311 624 439 624 439 624C 439 624 439 724 439 724C 439 724 539 624 539 624C 539 624 653 624 653 624C 653 624 767 510 767 510C 767 510 767 196 767 196C 767 196 311 196 311 196C 311 196 311 624 311 624M 525 296C 525 296 525 467 525 467C 525 467 468 467 468 467C 468 467 468 296 468 296C 468 296 525 296 525 296M 682 296C 682 296 682 467 682 467C 682 467 624 467 624 467C 624 467 624 296 624 296C 624 296 682 296 682 296"
        transform="">
    </path>    
</svg>